<svg xmlns="http://www.w3.org/2000/svg" viewBox="0 0 64 64" width="64" height="64">
  <title>Swift To The Song Association</title>
  <clipPath id="tile"><rect x="2" y="2" width="60" height="60" rx="14"/></clipPath>
  <rect x="2" y="2" width="60" height="60" rx="14" fill="#f5efe1" stroke="#e0d6bf" stroke-width="1"/>
  <line x1="20" y1="12" x2="46" y2="12" stroke="#2b2722" stroke-opacity="0.10" stroke-width="1"/>
  <line x1="20" y1="54" x2="48" y2="54" stroke="#2b2722" stroke-opacity="0.10" stroke-width="1"/>
  <line x1="13" y1="8" x2="13" y2="56" stroke="#b23a3a" stroke-opacity="0.85" stroke-width="2.5" stroke-linecap="round"/>
  <g clip-path="url(#tile)"><g transform="rotate(-2.5 37 33)">
    <path d="M14.5,26.8 Q28,24.6 42,24.2 Q54,23.8 66,24.6 L66,40 Q46,41.4 32,42.2 Q22,42.8 15.4,42.2 Q13.6,37.6 14,32.8 Q14.2,29.4 14.5,26.8 Z" fill="#f2c33d" opacity="0.72"/>
    <path d="M14.5,27.5 L34,26 L34.5,42 L15,43 Z" fill="#f2c33d" opacity="0.28"/>
  </g></g>
  <g transform="rotate(-2 37 32)">
    <path d="M21.5,23.8 Q25.5,20.5 29.5,16 Q30.2,33 28.8,48.8" fill="none" stroke="#2b2722" stroke-width="5.8" stroke-linecap="round" stroke-linejoin="round"/>
    <path d="M37.5,18.2 Q47,14 49.3,21 Q50.3,26.8 45,30.4" fill="none" stroke="#2b2722" stroke-width="5.8" stroke-linecap="round"/>
    <path d="M45,30.4 Q52.6,32 52.9,39.8 Q53.2,47.8 45,49.3 Q39.8,50.1 36.8,46.8" fill="none" stroke="#2b2722" stroke-width="5.8" stroke-linecap="round"/>
  </g>
  <path transform="rotate(-10 54.5 13)" d="M54.5,8.8 L55.56,11.54 L58.49,11.7 L56.21,13.56 L56.97,16.4 L54.5,14.8 L52.03,16.4 L52.79,13.56 L50.51,11.7 L53.44,11.54 Z" fill="#e0a32f" stroke="#2b2722" stroke-width="1.5" stroke-linejoin="round"/>
</svg>
