<svg xmlns="http://www.w3.org/2000/svg" viewBox="0 0 64 64" width="64" height="64">
  <title>Swift To The Song Association</title>
  <rect x="2" y="2" width="60" height="60" rx="14" fill="#f5efe1" stroke="#e0d6bf" stroke-width="1"/>
  <line x1="22" y1="14" x2="52" y2="14" stroke="#2b2722" stroke-opacity="0.10" stroke-width="1"/>
  <line x1="20" y1="52" x2="46" y2="52" stroke="#2b2722" stroke-opacity="0.10" stroke-width="1"/>
  <line x1="16" y1="10" x2="16" y2="54" stroke="#b23a3a" stroke-opacity="0.85" stroke-width="2.5" stroke-linecap="round"/>
  <path d="M2,26 Q32,44 62,22" fill="none" stroke="#2b2722" stroke-width="2.4"/>
  <circle cx="4" cy="27.2" r="6" fill="#c4649a" stroke="#2b2722" stroke-width="2.5"/>
  <circle cx="60" cy="23.4" r="6" fill="#8b5fa0" stroke="#2b2722" stroke-width="2.5"/>
  <circle cx="15.2" cy="32" r="8" fill="#4a8fb5" stroke="#2b2722" stroke-width="2.5"/>
  <circle cx="48.8" cy="29.7" r="8" fill="#a32a2a" stroke="#2b2722" stroke-width="2.5"/>
  <path transform="rotate(-8 32 34)" d="M32,21.5 L35.12,29.71 L43.89,30.14 L37.04,35.64 L39.35,44.11 L32,39.3 L24.65,44.11 L26.96,35.64 L20.11,30.14 L28.88,29.71 Z"
        fill="#e0a32f" stroke="#2b2722" stroke-width="2.5" stroke-linejoin="round"/>
</svg>
